<svg height="512pt" viewBox="0 0 512 512" width="512pt" xmlns="http://www.w3.org/2000/svg"><path fill="#fff" d="M 261.5 124.5 c -70.2 0 -127.4 57.1 -127.4 127.3 c 0 24.1 6.7 47.5 19.5 67.8 l 3 4.8 l -12.9 47 l 48.2 -12.6 l 4.7 2.8 c 19.6 11.6 42 17.7 64.8 17.7 h 0.1 c 70.2 0 127.3 -57.1 127.4 -127.3 c 0 -34 -13.2 -66 -37.3 -90.1 c -24 -24.1 -56 -37.3 -90 -37.3 z m 74.9 182 c -3.2 8.9 -18.5 17.1 -25.8 18.2 c -6.6 1 -14.9 1.4 -24.1 -1.5 c -5.6 -1.8 -12.7 -4.1 -21.8 -8.1 c -38.4 -16.6 -63.5 -55.2 -65.4 -57.8 c -1.9 -2.6 -15.6 -20.8 -15.6 -39.6 c 0 -18.8 9.9 -28.1 13.4 -31.9 c 3.5 -3.8 7.7 -4.8 10.2 -4.8 c 2.6 0 5.1 0 7.3 0.1 c 2.4 0.1 5.5 -0.9 8.6 6.6 c 3.2 7.7 10.8 26.5 11.8 28.4 c 1 1.9 1.6 4.2 0.3 6.7 c -1.3 2.6 -7.3 10.3 -9.6 13.1 c -1.7 2.1 -3.9 4 -1.7 7.8 c 2.2 3.8 9.9 16.4 21.3 26.5 c 14.6 13 27 17.1 30.8 19 c 3.8 1.9 6.1 1.6 8.3 -1 c 2.2 -2.6 9.6 -11.2 12.1 -15 c 2.6 -3.8 5.1 -3.2 8.6 -1.9 c 3.5 1.3 22.3 10.5 26.2 12.4 c 3.8 1.9 6.4 2.9 7.3 4.5 c 1 1.6 1 9.3 -2.2 18.2 z m 0 0"/><path fill="rgb(255, 255, 255)" d="M 475.1 0 h -438.1 c -20.4 0 -36.9 16.5 -36.9 36.9 v 438.1 c 0 20.4 16.5 36.9 36.9 36.9 h 438.1 c 20.4 0 36.9 -16.5 36.9 -36.9 v -438.1 c 0 -20.4 -16.5 -36.9 -36.9 -36.9 z m -213.6 405.1 c 0 0 0 0 0 0 h -0.1 c -25.6 0 -50.8 -6.4 -73.2 -18.6 l -81.2 21.3 l 21.7 -79.4 c -13.4 -23.2 -20.5 -49.6 -20.5 -76.6 c 0 -84.5 68.8 -153.2 153.2 -153.2 c 41 0 79.5 16 108.4 44.9 c 28.9 29 44.9 67.4 44.8 108.4 c 0 84.5 -68.8 153.2 -153.2 153.2 z m 0 0"/>
    <ellipse cx="412" cy="288" fill="#fff" rx="0" ry="0"/></svg>